<svg width="273" height="395" viewBox="0 0 273 395" fill="none" xmlns="http://www.w3.org/2000/svg">
<path d="M70.454 23.0657C61.7537 25.9158 54.2292 31.3204 47.0809 36.8669L35.4179 48.6222C27.4819 39.516 19.5458 7.88076 31.926 1.18709C43.3304 -4.97439 63.7642 14.4325 70.454 23.0657Z" fill="url(#paint0_linear_1_5)"/>
<path d="M138.527 54.7601C135.506 41.6447 125.865 31.0839 115.166 23.5979C115.107 22.1905 133.448 12.0673 136.223 11.062C175.233 -3.02303 155.199 43.6316 138.527 54.7601Z" fill="url(#paint1_linear_1_5)"/>
<path d="M182.464 134.729C161.736 126.628 130.615 124.594 128.616 96.2702C140.503 85.4492 150.602 75.5743 134.483 62.4117C127.923 57.0544 120.645 53.8731 112.121 56.7942C113.097 51.3186 110.005 16.4075 107.066 14.3497C106.701 14.0896 100.211 12.6349 99.9172 12.8596C100.823 15.8162 101.669 19.506 101.928 22.5808C102.68 31.4268 103.821 42.4962 104.02 51.1412C104.338 64.8479 95.8258 75.2195 99.976 89.955C101.469 95.265 106.607 98.0442 101.963 103.331C94.6853 111.609 76.0269 104.643 80.2594 94.8629C80.8237 93.5502 82.8224 93.0417 83.8923 91.3032C91.3816 79.2286 82.3757 62.7783 83.763 49.249C84.2215 44.8142 86.2908 39.6225 86.6905 34.821C86.9609 31.4978 87.1961 11.9727 85.5501 10.9674L79.5893 10.8255L75.5213 52.7259C53.853 42.3307 44.3063 67.8872 24.7307 67.0476L29.8098 75.1958L23.7196 78.8029L27.6347 83.6871C25.0011 90.8775 22.3558 99.7826 21.6857 107.399C21.2154 112.815 22.0266 118.776 21.6857 124.263C27.1645 117.215 33.1841 109.764 42.0019 106.902C25.4597 125.245 18.2879 150.919 22.7085 175.364L28.8104 160.049C31.6086 160.369 28.7987 165.004 28.7987 165.667V182.022C28.7987 210.405 77.132 241.733 78.2607 273.298L81.6232 299.031C89.1242 282.711 91.1935 264.428 89.6298 246.535C88.2189 230.356 80.5651 213.93 79.554 197.385C78.8486 185.831 80.7767 172.124 84.1628 161.066C84.586 159.671 85.068 156.182 86.6905 155.957C85.9146 162.024 83.9629 168.789 83.6572 174.868C82.1641 205.048 99.6586 232.142 98.9296 262.796C98.6004 276.573 93.8506 299.303 85.0798 310.172C78.3077 318.557 69.1372 313.554 63.3292 322.518C76.1679 323.725 87.8662 329.307 99.9407 333.245C111.133 321.525 117.188 305.938 124.795 291.877C131.473 306.671 142.066 317.953 154.776 327.627C139.55 323.961 114.567 317.776 110.499 338.898C140.761 349.766 181.076 353.42 211.939 342.718C221.262 339.477 228.116 334.735 236.064 329.165C236.887 328.585 238.039 326.421 239.109 328.136C212.609 356.554 170.424 366.63 133.237 356.98C99.0002 348.099 70.9478 321.596 32.8666 330.182C7.8123 335.823 -4.32101 356.708 1.39293 381.803C4.42626 378.989 4.92006 374.554 7.48311 371.077C32.3728 337.195 97.3189 380.384 127.864 388.982C189.483 406.319 248.644 382.099 266.48 317.859C287.337 242.738 256.298 163.621 182.487 134.753L182.464 134.729ZM75.533 72.1328C66.8563 73.481 60.143 69.2591 61.307 59.869C69.0784 58.8756 76.4266 63.7717 75.533 72.1328ZM108.041 76.2129C107.43 67.7098 115.789 63.0266 123.255 66.0423C122.667 74.569 115.813 77.2536 108.041 76.2129ZM179.172 171.272L188.307 178.415C183.733 178.049 179.665 179.799 176.127 182.507L179.172 171.272ZM209.387 214.45C168.72 222.326 134.201 255.605 134.965 299.02C126.7 262.89 152.048 227.258 185.732 216.2C188.907 215.16 199.359 212.144 202.027 212.144H224.883L209.399 214.45H209.387Z" fill="url(#paint2_linear_1_5)"/>
<defs>
<linearGradient id="paint0_linear_1_5" x1="-32.6086" y1="65.7703" x2="338.518" y2="496.01" gradientUnits="userSpaceOnUse">
<stop offset="0.03" stop-color="#D7936F"/>
<stop offset="0.17" stop-color="#D08A65"/>
<stop offset="0.63" stop-color="#BC7248"/>
<stop offset="0.89" stop-color="#B5693E"/>
</linearGradient>
<linearGradient id="paint1_linear_1_5" x1="-32.6085" y1="65.7703" x2="338.518" y2="496.01" gradientUnits="userSpaceOnUse">
<stop offset="0.03" stop-color="#D7936F"/>
<stop offset="0.17" stop-color="#D08A65"/>
<stop offset="0.63" stop-color="#BC7248"/>
<stop offset="0.89" stop-color="#B5693E"/>
</linearGradient>
<linearGradient id="paint2_linear_1_5" x1="-32.6085" y1="65.7703" x2="338.518" y2="496.01" gradientUnits="userSpaceOnUse">
<stop offset="0.03" stop-color="#D7936F"/>
<stop offset="0.17" stop-color="#D08A65"/>
<stop offset="0.63" stop-color="#BC7248"/>
<stop offset="0.89" stop-color="#B5693E"/>
</linearGradient>
</defs>
</svg>
